#N canvas 827 239 527 327 12;
#X obj 20 22 ctlin;
#X text 51 110 value;
#X text 64 21 (all controllers \, omni);
#X text 67 80 controller #;
#X text 79 48 channel/port;
#X floatatom 20 109 4 0 127 0 - - - 0;
#X floatatom 36 80 4 0 127 0 - - - 0;
#X floatatom 52 47 0 1 64 0 - - - 0;
#X obj 347 49 adc~;
#X obj 448 88 looper~;
#X obj 347 134 dac~;
#X connect 0 0 5 0;
#X connect 0 1 6 0;
#X connect 0 2 7 0;
#X connect 8 0 9 0;
#X connect 8 0 10 0;
#X connect 8 1 10 1;
#X connect 9 0 10 0;
#X connect 9 0 10 1;
