#N canvas 827 239 527 327 12;
#N canvas 0 0 450 250 (subpatch) 0;
#X array looper 2.646e+06 float 2;
#X coords 0 1 2.646e+06 -1 200 140 1;
#X restore 754 38 graph;
#X obj 46 46 inlet~;
#X obj 416 642 outlet~;
#N canvas 0 0 450 250 (subpatch) 0;
#X array \$0-looper 2.646e+06 float 2;
#X coords 0 1 2.646e+06 -1 200 140 1;
#X restore 390 63 graph;
#X obj 168 47 tgl 25 0 empty empty empty 17 7 0 10 #e4e4e4 #4d4d4d #373737 0 1;
#X obj 166 103 sel 0 1;
#X msg 213 146 start;
#X msg 166 146 stop;
#X obj 145 182 tabwrite~ \$0-looper;
#X obj 545 499 tgl 25 0 empty empty empty 17 7 0 10 #e4e4e4 #4d4d4d #373737 0 1;
#X obj 396 547 +~ 1;
#X obj 396 518 *~ 44100;
#X obj 380 466 phasor~;
#X floatatom 334 330 5 0 0 0 - - - 12;
#X msg 477 414 88200;
#X obj 410 576 tabread4~ \$0-looper;
#X connect 1 0 8 0;
#X connect 4 0 5 0;
#X connect 5 0 7 0;
#X connect 5 1 6 0;
#X connect 6 0 8 0;
#X connect 7 0 8 0;
#X connect 9 0 12 0;
#X connect 10 0 15 0;
#X connect 11 0 10 0;
#X connect 12 0 11 0;
#X connect 13 0 12 0;
#X connect 14 0 11 1;
#X connect 15 0 2 0;
